<?xml version="1.0" encoding="UTF-8" standalone="no"?>
<!-- Created with Inkscape (http://www.inkscape.org/) -->

<svg
   xmlns:svg="http://www.w3.org/2000/svg"
   xmlns="http://www.w3.org/2000/svg"
   version="1.1"
   width="620"
   height="196.46001"
   id="svg2">
  <defs
     id="defs4" />
  <g
     transform="translate(-99.357143,-710.85491)"
     id="layer1">
    <path
       d="m 437.84449,881.48634 -55.39089,-15.75859 -65.14789,15.03452 -65.14789,15.03453 -31.52457,-7.79268 -31.52456,-7.79269 0.20315,-1.74728 c 0.12223,-1.05145 0.60721,-1.72063 1.21779,-1.68036 0.55806,0.0368 14.3808,3.3704 30.7172,7.40799 l 29.70253,7.34106 1.07537,-1.59726 c 1.51552,-2.25102 60.7567,-105.18281 60.63755,-105.35799 -0.0538,-0.0791 -13.02068,3.33824 -28.81533,7.59406 -15.79465,4.25581 -29.06254,7.74498 -29.4842,7.7537 -0.78187,0.0162 -1.80483,-2.7114 -1.2318,-3.28443 0.52698,-0.52699 62.09738,-16.95549 63.61788,-16.97482 1.49157,-0.0189 52.15574,14.43359 52.77758,15.05543 0.19851,0.19852 0.26194,1.11583 0.14093,2.03849 l -0.22001,1.67755 -25.64493,-7.3913 c -14.10471,-4.0652 -25.8745,-7.15135 -26.15508,-6.85809 -0.28058,0.29325 -14.17494,24.30362 -30.87636,53.35637 l -30.36623,52.82318 15.95806,-5.47256 c 8.77694,-3.0099 35.50322,-12.16929 59.39172,-20.35418 l 43.43363,-14.88162 0.005,-32.63811 0.004,-32.63811 1.69109,0 1.69109,0 0,34.11209 0,34.1121 3.5513,1.02968 c 24.41517,7.0791 113.68326,32.21175 114.41217,32.21175 0.77116,0 22.39703,-33.14601 65.20067,-99.93317 0.94343,-1.47205 0.91829,-1.49465 -0.96241,-0.86526 -6.76612,2.26431 -117.39567,33.83112 -118.56512,33.83112 -0.79468,0 -13.23113,-3.38335 -27.63657,-7.51857 -14.40545,-4.13522 -27.181,-7.80229 -28.39014,-8.14905 -1.86395,-0.53455 -2.19842,-0.94538 -2.19842,-2.70035 0,-1.37145 0.28532,-1.96455 0.84555,-1.75772 5.66025,2.08977 56.26263,16.04157 56.65833,15.62151 0.29486,-0.313 7.11366,-11.98398 15.1529,-25.9355 8.03923,-13.95152 14.85443,-25.44661 15.1449,-25.54463 0.29046,-0.098 1.09679,0.2376 1.79185,0.74583 1.18917,0.86955 0.42501,2.37653 -12.95327,25.54463 -7.81934,13.54132 -14.17739,24.67779 -14.12898,24.74772 0.0484,0.0699 26.86845,-7.60916 59.60009,-17.06466 32.73165,-9.4555 60.12088,-17.1967 60.86496,-17.20267 0.74408,-0.006 15.35513,3.75754 32.469,8.36334 30.01659,8.07828 31.10962,8.42921 30.93242,9.93114 -0.10103,0.85632 -0.30681,1.68007 -0.4573,1.83056 -0.15049,0.15048 -14.04031,-3.41178 -30.86628,-7.91614 -16.82597,-4.50435 -30.77464,-8.01309 -30.99704,-7.79718 -0.43775,0.42496 -53.37728,104.74248 -53.24601,104.92142 0.0438,0.0596 11.3229,-2.44561 25.06479,-5.56716 13.7419,-3.12155 25.05594,-5.60488 25.14231,-5.51851 0.0864,0.0864 0.34901,0.92185 0.58361,1.85662 l 0.42657,1.69957 -35.37722,7.95762 c -19.45747,4.37669 -35.83381,7.92568 -36.39188,7.88663 -0.55806,-0.039 -25.94055,-7.16235 -56.40554,-15.82957 z m 145.2172,13.56997 c -4.30708,-1.40808 -8.00098,-4.71107 -10.13997,-9.0669 -1.67308,-3.40702 -1.89603,-4.6167 -1.89603,-10.2872 0,-5.67625 0.22209,-6.87844 1.9032,-10.30187 4.0705,-8.28924 12.51588,-11.77137 21.81844,-8.99603 7.16803,2.13853 11.58341,8.40493 12.26412,17.40551 0.94371,12.47801 -5.79631,21.24779 -16.84536,21.91833 -2.49906,0.15167 -5.43458,-0.12594 -7.1044,-0.67184 z m 13.15091,-6.24944 c 3.27195,-2.60823 4.95507,-6.04878 5.40923,-11.0573 0.69628,-7.67868 -2.16155,-13.87852 -7.51874,-16.31132 -6.99303,-3.17566 -14.81749,0.39675 -17.00537,7.76415 -3.60396,12.13586 2.42441,22.53133 12.68872,21.88071 3.07233,-0.19475 4.40887,-0.66817 6.42616,-2.27624 z m 18.4433,-13.10466 0,-19.61669 2.70575,0 2.70575,0 0,8.11725 0,8.11725 10.14656,0 10.14656,0 0,-8.11725 0,-8.11725 2.70575,0 2.70575,0 0,19.61669 0,19.61668 -2.70575,0 -2.70575,0 0,-9.1319 0,-9.13191 -10.14656,0 -10.14656,0 0,9.13191 0,9.1319 -2.70575,0 -2.70575,0 0,-19.61668 z M 158.93542,893.027 c -4.30707,-1.40808 -8.00098,-4.71107 -10.13997,-9.0669 -1.67308,-3.40702 -1.89603,-4.6167 -1.89603,-10.2872 0,-5.67625 0.22209,-6.87844 1.9032,-10.30187 4.0705,-8.28924 12.51588,-11.77138 21.81844,-8.99603 7.16803,2.13852 11.58341,8.40493 12.26412,17.40551 0.94371,12.47801 -5.79631,21.24778 -16.84536,21.91833 -2.49906,0.15166 -5.43458,-0.12594 -7.1044,-0.67184 z m 13.15091,-6.24944 c 3.27195,-2.60823 4.95507,-6.04878 5.40923,-11.0573 0.69628,-7.67868 -2.16155,-13.87853 -7.51874,-16.31132 -6.99302,-3.17566 -14.81748,0.39675 -17.00537,7.76414 -3.60396,12.13587 2.42441,22.53134 12.68872,21.88072 3.07233,-0.19475 4.40887,-0.66817 6.42616,-2.27624 z m -62.72919,-13.10466 0,-19.61669 2.70575,0 2.70575,0 0,8.11725 0,8.11725 10.14656,0 10.14656,0 0,-8.11725 0,-8.11725 2.70575,0 2.70575,0 0,19.61669 0,19.61668 -2.70575,0 -2.70575,0 0,-9.1319 0,-9.13191 -10.14656,0 -10.14656,0 0,9.13191 0,9.1319 -2.70575,0 -2.70575,0 0,-19.61668 z m 115.19271,-48.28964 c -4.30707,-1.40809 -8.00098,-4.71108 -10.13997,-9.06691 -1.67308,-3.40702 -1.89603,-4.6167 -1.89603,-10.2872 0,-5.67625 0.22209,-6.87843 1.9032,-10.30186 4.0705,-8.28924 12.51588,-11.77138 21.81845,-8.99603 7.16802,2.13852 11.5834,8.40492 12.26411,17.4055 0.94371,12.47802 -5.79631,21.24779 -16.84536,21.91834 -2.49906,0.15166 -5.43458,-0.12594 -7.1044,-0.67184 z m 13.15091,-6.24944 c 3.27196,-2.60823 4.95507,-6.04878 5.40923,-11.0573 0.69628,-7.67868 -2.16155,-13.87853 -7.51874,-16.31132 -6.99302,-3.17567 -14.81748,0.39675 -17.00537,7.76414 -3.60396,12.13586 2.42442,22.53133 12.68872,21.88071 3.07233,-0.19474 4.40888,-0.66817 6.42616,-2.27623 z m 409.62248,6.24944 c -4.30707,-1.40809 -8.00097,-4.71108 -10.13997,-9.06691 -1.67307,-3.40702 -1.89603,-4.6167 -1.89603,-10.2872 0,-5.67625 0.2221,-6.87843 1.9032,-10.30186 4.0705,-8.28924 12.51589,-11.77138 21.81845,-8.99603 7.16803,2.13852 11.5834,8.40492 12.26412,17.4055 0.94371,12.47802 -5.79632,21.24779 -16.84537,21.91834 -2.49905,0.15166 -5.43458,-0.12594 -7.1044,-0.67184 z m 13.15092,-6.24944 c 3.27195,-2.60823 4.95507,-6.04878 5.40923,-11.0573 0.69628,-7.67868 -2.16156,-13.87853 -7.51875,-16.31132 -6.99302,-3.17567 -14.81748,0.39675 -17.00536,7.76414 -3.60397,12.13586 2.42441,22.53133 12.68872,21.88071 3.07232,-0.19474 4.40887,-0.66817 6.42616,-2.27623 z m -486.17903,-13.10467 0,-19.61668 2.70575,0 2.70575,0 0,8.11725 0,8.11725 10.14657,0 10.14656,0 0,-8.11725 0,-8.11725 2.70575,0 2.70575,0 0,19.61668 0,19.61669 -2.70575,0 -2.70575,0 0,-9.13191 0,-9.1319 -10.14656,0 -10.14657,0 0,9.1319 0,9.13191 -2.70575,0 -2.70575,0 0,-19.61669 z m 503.94589,0 0,-19.61668 2.70575,0 2.70575,0 0,8.11725 0,8.11725 10.14656,0 10.14656,0 0,-8.11725 0,-8.11725 2.70575,0 2.70575,0 0,19.61668 0,19.61669 -2.70575,0 -2.70575,0 0,-9.13191 0,-9.1319 -10.14656,0 -10.14656,0 0,9.1319 0,9.13191 -2.70575,0 -2.70575,0 0,-19.61669 z M 370.66033,778.70908 c -4.30707,-1.40809 -8.00097,-4.71108 -10.13997,-9.06691 -1.67307,-3.40702 -1.89603,-4.6167 -1.89603,-10.2872 0,-5.67625 0.2221,-6.87844 1.9032,-10.30187 4.0705,-8.28924 12.51589,-11.77138 21.81845,-8.99602 7.16803,2.13852 11.5834,8.40492 12.26412,17.4055 0.94371,12.47801 -5.79632,21.24779 -16.84537,21.91833 -2.49905,0.15167 -5.43458,-0.12594 -7.1044,-0.67183 z m 13.15092,-6.24945 c 3.27195,-2.60823 4.95507,-6.04878 5.40923,-11.05729 0.69628,-7.67868 -2.16156,-13.87853 -7.51875,-16.31133 -6.99302,-3.17566 -14.81748,0.39676 -17.00536,7.76415 -3.60397,12.13586 2.42441,22.53133 12.68872,21.88071 3.07232,-0.19474 4.40887,-0.66817 6.42616,-2.27624 z m 17.76686,-13.10466 0,-19.61669 2.70575,0 2.70575,0 0,8.11725 0,8.11725 10.14656,0 10.14656,0 0,-8.11725 0,-8.11725 2.70575,0 2.70575,0 0,19.61669 0,19.61669 -2.70575,0 -2.70575,0 0,-9.13191 0,-9.13191 -10.14656,0 -10.14656,0 0,9.13191 0,9.13191 -2.70575,0 -2.70575,0 0,-19.61669 z m 78.66509,1.0903 c -4.30707,-1.40809 -8.00098,-4.71108 -10.13997,-9.06691 -1.67308,-3.40702 -1.89603,-4.6167 -1.89603,-10.2872 0,-5.67625 0.22209,-6.87844 1.9032,-10.30187 4.0705,-8.28924 12.51588,-11.77138 21.81844,-8.99603 7.16803,2.13853 11.58341,8.40493 12.26412,17.40551 0.94371,12.47801 -5.79631,21.24779 -16.84536,21.91833 -2.49906,0.15167 -5.43458,-0.12594 -7.1044,-0.67183 z m 13.15091,-6.24945 c 3.27195,-2.60823 4.95507,-6.04878 5.40923,-11.05729 0.69628,-7.67869 -2.16155,-13.87853 -7.51874,-16.31133 -6.99302,-3.17566 -14.81748,0.39675 -17.00537,7.76415 -3.60396,12.13586 2.42442,22.53133 12.68872,21.88071 3.07233,-0.19475 4.40887,-0.66817 6.42616,-2.27624 z m 18.4433,-13.10466 0,-19.61669 2.70575,0 2.70575,0 0,8.11725 0,8.11725 10.14656,0 10.14657,0 0,-8.11725 0,-8.11725 2.70575,0 2.70574,0 0,19.61669 0,19.61668 -2.70574,0 -2.70575,0 0,-9.1319 0,-9.13191 -10.14657,0 -10.14656,0 0,9.13191 0,9.1319 -2.70575,0 -2.70575,0 0,-19.61668 z"
       id="path2830"
       style="fill:#000000" />
  </g>
</svg>
